# xmcd
#
# Track frame offsets:
#	150
#	15974
#	32145
#	45243
#	56805
#	77201
#	88965
#	104411
#	121949
#	134827
#	149018
#	160682
#	176341
#	193717
#	208392
#	225974
#	232164
#	243639
#	258667
#	275751
#	286459
#	308184
#	324226
#
# Disc length: 4411 seconds
#
# Revision: 1
# Processed by: cddbd v1.5.2PL0 Copyright (c) Steve Scherf et al.
# Submitted via: audiograbber 1.83.01
#
DISCID=58113917
DTITLE=Willie Nelson - One Hell of a Ride Sampler
DYEAR=2008
DGENRE=Country
TTITLE0=When I've Sung My Last Hillbilly Song
TTITLE1=Whiskey Rive
TTITLE2=Crazy
TTITLE3=Nite Life
TTITLE4=Rainbow Connection
TTITLE5=On the Road Again
TTITLE6=Everybody's Talkin
TTITLE7=Everywhere I go
TTITLE8=Bloody Mary Morning
TTITLE9=Sad Songs and Waltzes
TTITLE10=One in a Row
TTITLE11=Mamas Don't Let Your Babies Grow Up To Be Cowboys
TTITLE12=Me and Paul
TTITLE13=Yesterday's Wine
TTITLE14=Stardust
TTITLE15=No Place for Me
TTITLE16=She's Gone Gone Gone
TTITLE17=Write Your Own Songs
TTITLE18=Country Willie
TTITLE19=Blue Eyes Crying in the Rain
TTITLE20=Pancho and Lefty
TTITLE21=Still is Still Movin'
TTITLE22=When I've Sang My Last Hillbilly Song (1954)Track 23
EXTD=
EXTT0=
EXTT1=
EXTT2=
EXTT3=
EXTT4=
EXTT5=
EXTT6=
EXTT7=
EXTT8=
EXTT9=
EXTT10=
EXTT11=
EXTT12=
EXTT13=
EXTT14=
EXTT15=
EXTT16=
EXTT17=
EXTT18=
EXTT19=
EXTT20=
EXTT21=
EXTT22=
PLAYORDER=
